<svg width="312" height="90" viewBox="0 0 312 90" fill="none" xmlns="http://www.w3.org/2000/svg">
<rect x="4.56641" y="38" width="134.182" height="33.8228" transform="rotate(7.75881 4.56641 38)" fill="#222222"/>
<path d="M33.6944 65.806C30.1491 65.3229 28.335 62.9547 28.8413 59.2391L28.8423 59.2313C29.3412 55.5699 31.7336 53.7512 35.1706 54.2195C37.9728 54.6013 39.8537 56.537 39.7755 58.7892L39.7727 58.8677L36.5447 58.4279L36.5321 58.3473C36.4088 57.5736 35.7656 57.0286 34.8212 56.9C33.4278 56.7101 32.4617 57.6666 32.1917 59.6483L32.1906 59.656C31.9143 61.6841 32.697 62.9419 34.1368 63.1381C35.205 63.2837 36.0111 62.8652 36.2485 61.9908L36.2798 61.8768L34.3291 61.611L34.6371 59.3507L39.7461 60.0468L39.5404 61.5563C39.1228 64.6217 36.9379 66.2479 33.6944 65.806ZM40.1933 66.4864L41.7153 55.3162L46.7469 56.0018C49.6188 56.3931 50.999 57.953 50.6615 60.4302L50.6594 60.4456C50.4695 61.839 49.5865 62.996 48.431 63.3747L49.9857 67.8206L46.3164 67.3207L45.0514 63.411L43.9754 63.2644L43.4755 66.9336L40.1933 66.4864ZM44.2908 60.9499L45.6609 61.1365C46.5434 61.2568 47.2066 60.7873 47.3184 59.9668L47.3205 59.9513C47.4313 59.1385 46.9045 58.4911 46.0375 58.373L44.6673 58.1863L44.2908 60.9499ZM50.4579 67.885L55.6258 57.2115L59.744 57.7726L61.8681 69.4396L58.4156 68.9692L58.1377 66.6685L54.7936 66.2128L53.9103 68.3554L50.4579 67.885ZM57.2911 60.1508L55.7128 63.9805L57.8493 64.2716L57.3531 60.1592L57.2911 60.1508ZM62.8744 69.5767L64.3963 58.4065L69.8847 59.1543C72.1915 59.4686 73.395 60.7049 73.1545 62.4698L73.1524 62.4853C72.9763 63.7781 71.8448 64.6174 70.5222 64.6027L70.5137 64.6647C72.0102 64.908 73.1278 66.1957 72.9296 67.651L72.9274 67.6664C72.6627 69.6094 70.9405 70.6758 68.5485 70.3498L62.8744 69.5767ZM68.6886 61.2779L67.3727 61.0986L67.0626 63.3744L68.2392 63.5348C69.2223 63.6687 69.7933 63.2971 69.8925 62.5694L69.8946 62.5539C69.9863 61.8805 69.5246 61.3918 68.6886 61.2779ZM68.1251 65.5298L66.7936 65.3484L66.4624 67.7791L67.8636 67.97C68.8699 68.1071 69.5095 67.7527 69.616 66.9708L69.6182 66.9554C69.7226 66.189 69.2088 65.6775 68.1251 65.5298ZM76.5914 71.4457L78.1134 60.2755L81.9064 60.7923L83.4698 67.7782L83.524 67.7856L86.8994 61.4726L90.6924 61.9894L89.1705 73.1596L86.3063 72.7694L87.1881 66.2979L87.1339 66.2905L83.7596 72.4224L82.0024 72.1829L80.3915 65.3719L80.3373 65.3645L79.4556 71.8359L76.5914 71.4457ZM90.7264 73.3716L92.2484 62.2014L100.129 63.2751L99.7743 65.876L95.1762 65.2495L94.9336 67.03L99.2453 67.6174L98.9162 70.0326L94.6045 69.4451L94.363 71.2178L98.9611 71.8443L98.6067 74.4453L90.7264 73.3716ZM104.458 71.3712L105.184 63.9638L108.435 64.4068L107.152 71.7382L104.458 71.3712ZM105.272 75.4639C104.359 75.3394 103.716 74.558 103.835 73.691C103.952 72.8318 104.78 72.2508 105.693 72.3752C106.591 72.4976 107.242 73.28 107.124 74.1393C107.006 75.0063 106.17 75.5862 105.272 75.4639Z" fill="#F4F4F4"/>
<path d="M157.5 65.5C198.833 65 286.1 53 304.5 9" stroke="#222222" stroke-width="2" stroke-linecap="round"/>
<path d="M308.407 11.8976L299 8.50586L306.77 1.69658L308.407 11.8976Z" fill="#222222"/>
</svg>
